<svg xmlns="http://www.w3.org/2000/svg" width="1000" height="198.48" viewBox="0 0 1000 198.48">
	<title>
		Novi AMS
	</title>
	<path d="M527.28,15.9l-48,124.54a2.32,2.32,0,0,1-4.34,0L428.28,16a9.58,9.58,0,0,0-9-6.23H404a9.59,9.59,0,0,0-8.95,13L457.91,188.1a9.58,9.58,0,0,0,9,6.18h18.88a9.58,9.58,0,0,0,8.92-6.08L559.58,22.85a9.59,9.59,0,0,0-8.92-13.09H536.22a9.57,9.57,0,0,0-8.94,6.14" fill="#007cdc"/>
	<path d="M577.91,184.7V19.35a9.58,9.58,0,0,1,9.58-9.58h14.39a9.58,9.58,0,0,1,9.58,9.58V184.7a9.58,9.58,0,0,1-9.58,9.58H587.49a9.58,9.58,0,0,1-9.58-9.58" fill="#007cdc"/>
	<g opacity="0.4">
		<path d="M248,102.4c0-34.84,16.94-71.17,56-71.65V5.6c-50.36.72-90,36.8-90,98,0,58.33,38.5,94.92,88.45,94.92l1.52,0V173.31c-32.79,0-56-30.49-56-70.91" fill="#007cdc"/>
		<rect x="214.09" y="5.61" width="89.97" height="192.87" fill="none"/>
	</g>
	<g opacity="0.8">
		<path d="M392.49,100.5c0-56.42-35.83-94.93-88.82-94.93l-1.53,0V30.76c.26,0,.5,0,.77,0,39.64,0,55.27,39.65,55.27,70.91,0,41.56-24,71.67-56,71.67v25.13c44.15-.67,90.35-30.48,90.35-97.94" fill="#007cdc"/>
	</g>
	<path d="M304.06,5.6A96.44,96.44,0,1,0,400.5,102,96.43,96.43,0,0,0,304.06,5.6m0,167.72A71.28,71.28,0,1,1,375.34,102a71.28,71.28,0,0,1-71.28,71.28" fill="#007cdc"/>
	<path d="M5.06,43.69A72.62,72.62,0,0,1,21.15,20.51,74.72,74.72,0,0,1,45,4.93l.17-.07A2.52,2.52,0,0,0,44.21,0H7.66A7.66,7.66,0,0,0,0,7.66V43a2.56,2.56,0,0,0,4.91,1l.15-.36" fill="#56b349"/>
	<path d="M101.68,7.86c-49.49,0-89,34-91.37,92.29V187a9.57,9.57,0,0,0,9.58,9.58H34.53A9.58,9.58,0,0,0,44.12,187V104.7c0-35.08,17.15-65.42,56.8-65.42s55.28,33.39,55.28,64.65V187a9.58,9.58,0,0,0,9.58,9.58h15.15a9.58,9.58,0,0,0,9.58-9.58V102.8h0c0-56.42-35.84-94.93-88.83-94.93" fill="#007cdc"/>
	<path d="M735.34,77.48h-.23c-1.19,4.76-2.38,11.31-3.58,15.84l-3.45,14.42H743l-3.69-14.42c-1.19-4.53-2.74-11.08-3.94-15.84" fill="#3279bd"/>
	<path d="M990.41,9.24h-346a9.59,9.59,0,0,0-9.59,9.58v166.4a9.59,9.59,0,0,0,9.59,9.58h346a9.58,9.58,0,0,0,9.59-9.58V18.82a9.58,9.58,0,0,0-9.59-9.58M750.63,142.18l-5.13-18.59H724.76l-4.52,18.59H698l23.36-80.31h28.6l24,80.31Zm96.51,0-1-28.84c-.35-9-.47-19.78-.47-32.29h-.36c-2.5,10.61-5.83,22.64-8.46,31.46l-8,28h-16.8l-6.67-28c-2.15-8.58-4.53-20.5-6.44-31.46h-.24c-.48,11.32-.83,23.24-1.19,32.29l-1.31,28.84H776.48l5-80.31h29l5.25,21.68c2.26,8.82,4.64,19.54,6.31,29.31h.36c2.26-9.77,4.88-21.09,7.26-29.55l6.08-21.44h28.24l4,80.31Zm49.09,1.19c-9.65,0-19.06-2.5-23.59-4.89l4.05-17.75a48.41,48.41,0,0,0,20.85,5c7.39,0,11-2.51,11-6.56s-3.58-6.07-12.63-9.17c-13.59-4.89-22.64-12.28-22.64-24.2,0-14.17,12-25.13,32.29-25.13,9.53,0,16.44,1.78,21.69,4L922.69,82a41.86,41.86,0,0,0-17.4-3.81c-6.55,0-10.13,2.39-10.13,6,0,4,4.29,5.6,14.42,9.41,14.42,5.37,20.85,13,20.85,24.19,0,13.82-10.72,25.62-34.2,25.62" fill="#007cdc"/>
	<path d="M985.25,37.45a12,12,0,1,1-12-11.7A11.75,11.75,0,0,1,985.25,37.45Zm-21,0a9.07,9.07,0,0,0,9.13,9.35,9,9,0,0,0,8.92-9.28c0-5.21-3.78-9.41-9-9.41A9.09,9.09,0,0,0,964.21,37.45Zm7.21,6.13h-2.71V31.89a23.08,23.08,0,0,1,4.49-.36,7.28,7.28,0,0,1,4.07.86A3.24,3.24,0,0,1,978.41,35,3,3,0,0,1,976,37.67v.14a3.43,3.43,0,0,1,2.14,2.85,8.78,8.78,0,0,0,.86,2.92h-2.93a10.49,10.49,0,0,1-.93-2.85c-.2-1.28-.92-1.85-2.42-1.85h-1.28Zm.07-6.63h1.28c1.5,0,2.72-.5,2.72-1.71s-.79-1.79-2.5-1.79a6.39,6.39,0,0,0-1.5.15Z" fill="#fff"/>
</svg>